HIERARCHY
ROOT Hips
{
	OFFSET 0.00000 0.00000 0.00000
	CHANNELS 6 Xposition Yposition Zposition Zrotation Yrotation Xrotation 
	JOINT LHipJoint
	{
		OFFSET 0 0 0
		CHANNELS 3 Zrotation Yrotation Xrotation
		JOINT LeftUpLeg
		{
			OFFSET 1.44361 -1.63093 0.70831
			CHANNELS 3 Zrotation Yrotation Xrotation
			JOINT LeftLeg
			{
				OFFSET 2.20103 -6.04728 0.00000
				CHANNELS 3 Zrotation Yrotation Xrotation
				JOINT LeftFoot
				{
					OFFSET 2.54154 -6.98283 0.00000
					CHANNELS 3 Zrotation Yrotation Xrotation
					JOINT LeftToeBase
					{
						OFFSET 0.05971 -0.16406 1.77582
						CHANNELS 3 Zrotation Yrotation Xrotation
						End Site
						{
							OFFSET 0.00000 -0.00000 0.90832
						}
					}
				}
			}
		}
	}
	JOINT RHipJoint
	{
		OFFSET 0 0 0
		CHANNELS 3 Zrotation Yrotation Xrotation
		JOINT RightUpLeg
		{
			OFFSET -1.65838 -1.63093 0.70830
			CHANNELS 3 Zrotation Yrotation Xrotation
			JOINT RightLeg
			{
				OFFSET -2.26926 -6.23475 0.00000
				CHANNELS 3 Zrotation Yrotation Xrotation
				JOINT RightFoot
				{
					OFFSET -2.34808 -6.45129 0.00000
					CHANNELS 3 Zrotation Yrotation Xrotation
					JOINT RightToeBase
					{
						OFFSET -0.18633 -0.51195 1.68539
						CHANNELS 3 Zrotation Yrotation Xrotation
						End Site
						{
							OFFSET -0.00000 -0.00000 0.88927
						}
					}
				}
			}
		}
	}
	JOINT LowerBack
	{
		OFFSET 0 0 0
		CHANNELS 3 Zrotation Yrotation Xrotation
		JOINT Spine
		{
			OFFSET -0.10393 2.01691 0.06920
			CHANNELS 3 Zrotation Yrotation Xrotation
			JOINT Spine1
			{
				OFFSET 0.04092 2.01302 -0.05283
				CHANNELS 3 Zrotation Yrotation Xrotation
				JOINT Neck
				{
					OFFSET 0 0 0
					CHANNELS 3 Zrotation Yrotation Xrotation
					JOINT Neck1
					{
						OFFSET -0.02870 1.58978 -0.03113
						CHANNELS 3 Zrotation Yrotation Xrotation
						JOINT Head
						{
							OFFSET 0.11532 1.54326 -0.29195
							CHANNELS 3 Zrotation Yrotation Xrotation
							End Site
							{
								OFFSET 0.04056 1.59999 -0.09535
							}
						}
					}
				}
				JOINT LeftShoulder
				{
					OFFSET 0 0 0
					CHANNELS 3 Zrotation Yrotation Xrotation
					JOINT LeftArm
					{
						OFFSET 3.30641 1.15764 0.01104
						CHANNELS 3 Zrotation Yrotation Xrotation
						JOINT LeftForeArm
						{
							OFFSET 4.63208 -0.00000 0.00000
							CHANNELS 3 Zrotation Yrotation Xrotation
							JOINT LeftHand
							{
								OFFSET 3.41924 -0.00000 -0.00000
								CHANNELS 3 Zrotation Yrotation Xrotation
								JOINT LeftFingerBase
								{
									OFFSET 0 0 0
									CHANNELS 3 Zrotation Yrotation Xrotation
									JOINT LeftHandIndex1
									{
										OFFSET 0.62537 -0.00000 -0.00000
										CHANNELS 3 Zrotation Yrotation Xrotation
										End Site
										{
											OFFSET 0.50419 -0.00000 -0.00000
										}
									}
								}
								JOINT LThumb
								{
									OFFSET 0 0 0
									CHANNELS 3 Zrotation Yrotation Xrotation
									End Site
									{
										OFFSET 0.51189 -0.00000 0.51189
									}
								}
							}
						}
					}
				}
				JOINT RightShoulder
				{
					OFFSET 0 0 0
					CHANNELS 3 Zrotation Yrotation Xrotation
					JOINT RightArm
					{
						OFFSET -3.78081 1.02180 -0.16609
						CHANNELS 3 Zrotation Yrotation Xrotation
						JOINT RightForeArm
						{
							OFFSET -4.40640 -0.00000 -0.00000
							CHANNELS 3 Zrotation Yrotation Xrotation
							JOINT RightHand
							{
								OFFSET -3.44675 -0.00000 0.00000
								CHANNELS 3 Zrotation Yrotation Xrotation
								JOINT RightFingerBase
								{
									OFFSET 0 0 0
									CHANNELS 3 Zrotation Yrotation Xrotation
									JOINT RightHandIndex1
									{
										OFFSET -0.51367 -0.00000 -0.00000
										CHANNELS 3 Zrotation Yrotation Xrotation
										End Site
										{
											OFFSET -0.41414 -0.00000 -0.00000
										}
									}
								}
								JOINT RThumb
								{
									OFFSET 0 0 0
									CHANNELS 3 Zrotation Yrotation Xrotation
									End Site
									{
										OFFSET -0.42046 -0.00000 0.42046
									}
								}
							}
						}
					}
				}
			}
		}
	}
}
MOTION
Frames: 16
Frame Time: 0.125
0.00 0.00 0.00 0 0 0 0 0 0 -21 0 0 0 0 0 0 0 0 0 0 0 0 0 0 21 0 0 0 0 0 0 0 0 0 0 0 0 0 0 0 0 0 0 0 0 0 0 -16 0 0 21 0 0 11 0 0 0 -8 0 0 0 0 0 0 0 0 0 0 0 0 0 0 0 0 0 0 0 0 8 0 0 0 0 0 0 0 0 0 0 0 0 0 0 0 0 0
0.00 0.00 0.00 178.3790 3.4111 -168.2570 0.0000 0.0000 0.0000 -20.0206 -13.6150 -12.0958 1.6519 8.1000 23.0181 1.0853 1.5786 -20.3102 12.5663 -18.6199 -67.7730 0.0000 0.0000 0.0000 21.1911 6.1615 -8.0814 -0.4563 -4.3335 12.0167 -0.8455 6.4730 -16.4030 -0.2301 3.0875 -8.5225 -7.2629 1.0386 -6.1908 1.2694 1.9296 1.9033 5.6223 0.6969 5.1979 -3.4423 1.7576 -6.7327 6.7007 -4.0909 35.5239 2.3610 -3.0354 13.2063 0.0000 -0.0000 0.0000 -89.5307 1.9054 21.7870 11.8835 -19.6297 -2.0630 -0.0000 -0.0000 23.8928 26.2520 -16.5103 -7.9785 -7.1250 0.0000 -0.0000 -1.0269 11.6934 0.7976 0.0000 -0.0000 0.0000 94.4869 -8.0989 -16.7702 -10.8642 18.0797 -1.7335 0.0000 0.0000 24.5669 -18.9482 -38.4711 12.0563 7.1250 -0.0000 -0.0000 22.7468 -68.7570 -13.2104
0.00 0.00 0.00 178.2960 1.7440 -168.7280 0.0000 0.0000 0.0000 -18.9955 -17.0440 -22.1531 5.0403 13.4290 40.9965 0.8032 0.3402 -17.0636 11.3007 -18.0791 -63.7544 0.0000 0.0000 0.0000 21.8470 5.7234 -7.7492 -0.5272 -4.6531 12.9217 -1.0427 6.3399 -18.2254 -0.1788 2.7237 -7.5105 -6.2812 1.2967 -4.6235 1.1060 2.1278 2.4326 4.8671 0.8373 4.8673 -3.2631 1.2627 -6.7350 6.4171 -4.2720 34.5074 2.2059 -2.9987 12.7688 0.0000 0.0000 0.0000 -89.2197 1.4337 21.3830 11.4049 -18.9063 -1.9051 -0.0000 -0.0000 24.6755 25.9778 -16.8174 -8.0243 -7.1250 0.0000 -0.0000 -1.2367 11.3995 0.9681 0.0000 0.0000 0.0000 94.0248 -5.7332 -14.8732 -10.7444 17.8955 -1.6966 0.0000 0.0000 25.6508 -19.8948 -39.4387 12.9469 7.1250 -0.0000 -0.0000 22.9952 -69.9160 -13.9505
0.00 0.00 0.00 178.4160 6.9172 -167.0860 0.0000 0.0000 0.0000 -8.6659 -21.7874 -51.2438 4.7041 13.0426 39.5282 1.0868 0.1058 -19.7517 10.1755 -17.5074 -60.0733 0.0000 0.0000 0.0000 19.7905 4.6069 4.8624 -0.7660 -5.5888 15.5958 0.0708 5.5351 -1.0700 -4.1607 12.3713 -37.0583 -6.9149 4.4465 1.9745 -0.7008 6.1525 3.8876 3.0953 2.9944 2.2910 -3.5099 -0.2320 -6.0384 4.7209 -2.5356 23.5422 1.8696 -1.6359 8.3684 0.0000 0.0000 0.0000 -88.6128 3.6030 5.0462 7.3504 -12.4945 -0.8057 -0.0000 -0.0000 36.5781 22.9420 -16.0226 -6.6638 -7.1250 0.0000 -0.0000 -3.1918 12.6804 2.4171 0.0000 0.0000 0.0000 92.3395 6.6499 16.6579 -19.4624 29.9891 -5.2600 0.0000 0.0000 7.5764 -18.8538 -35.6954 11.2682 7.1250 -0.0000 -0.0000 19.4602 -66.2069 -10.1210
0.00 0.00 0.00 177.7450 6.1005 -164.6220 0.0000 0.0000 0.0000 -14.2139 -22.2892 -40.9957 3.0886 10.8371 31.7325 1.5779 -1.5315 -23.3154 10.3429 -17.5982 -60.6285 0.0000 0.0000 0.0000 16.9299 7.7276 -3.8027 -2.6921 -10.1792 29.5589 -1.0133 -4.9052 18.0188 -2.5758 9.9745 -28.8941 -8.5475 3.9319 1.6402 -0.9812 5.4787 3.5788 3.7280 2.6319 2.1197 -3.7994 -0.6160 -6.3600 5.5863 -3.2569 23.6352 2.1434 -1.9158 8.5100 0.0000 -0.0000 0.0000 -88.3662 0.4064 19.2098 10.2455 -17.1226 -1.5464 -0.0000 -0.0000 26.6522 23.9800 -16.6919 -7.2807 -7.1250 0.0000 -0.0000 -2.5491 11.8243 1.9747 0.0000 -0.0000 0.0000 91.9346 3.3425 7.5880 -15.4267 24.7372 -3.4025 0.0000 0.0000 10.4135 -19.5664 -36.7545 12.0068 7.1250 -0.0000 -0.0000 19.8172 -67.3935 -10.8481
0.00 0.00 0.00 177.2980 5.2727 -163.8920 0.0000 0.0000 0.0000 -17.6836 -22.1807 -34.3286 2.2418 9.3525 26.9044 1.7697 -3.3569 -24.3115 9.9080 -17.3578 -59.1803 0.0000 0.0000 0.0000 14.9967 10.4631 -16.6281 -6.9024 -15.2491 48.5041 -0.5316 -11.0666 14.1323 -2.8372 10.4267 -30.3699 -9.2666 3.0294 2.1130 -0.7557 4.2002 3.4048 4.3504 1.9925 1.7734 -3.8248 -0.4685 -6.6542 5.3189 -2.9224 23.4494 2.0867 -1.7688 8.4802 0.0000 0.0000 0.0000 -88.2886 -1.9702 27.0304 13.6490 -22.2307 -2.6939 -0.0000 -0.0000 21.6094 25.0528 -15.6051 -7.1668 -7.1250 0.0000 -0.0000 -1.7478 12.8508 1.3159 0.0000 0.0000 0.0000 91.1169 -0.1076 2.1273 -13.6983 22.3017 -2.7126 0.0000 0.0000 13.1945 -17.9305 -36.8691 10.9870 7.1250 -0.0000 -0.0000 21.8826 -67.0102 -11.8307
0.00 0.00 0.00 176.5650 5.5290 -165.5450 0.0000 0.0000 0.0000 -22.3504 -19.6755 -24.7960 1.4571 7.6295 21.5942 1.9829 -4.3303 -25.6195 9.9197 -17.3645 -59.2197 0.0000 0.0000 0.0000 11.7641 15.1885 -32.5190 -11.5762 -18.2057 64.6390 0.0753 -6.0772 -6.1006 -3.1795 10.9801 -32.2127 -10.3174 2.2964 4.0096 -0.4750 3.0664 3.7851 5.1831 1.4418 1.2210 -3.5028 -0.0676 -6.5496 5.2703 -2.5295 23.7670 2.0492 -1.6005 8.5438 0.0000 0.0000 0.0000 -87.6896 -5.9653 32.9890 17.6991 -27.7702 -4.4082 -0.0000 -0.0000 20.4689 29.2314 -16.7002 -9.1354 -7.1250 0.0000 -0.0000 0.9202 11.0087 -0.7276 0.0000 0.0000 0.0000 91.2780 -4.6378 -7.2391 -11.8519 19.5821 -2.0524 0.0000 0.0000 18.7696 -18.8001 -36.3239 11.4010 7.1250 -0.0000 -0.0000 20.2237 -66.7705 -10.7920
0.00 0.00 0.00 176.7220 4.3651 -168.0130 0.0000 0.0000 0.0000 -26.8874 -12.9782 -8.7482 0.6126 5.0094 13.9354 2.6438 -7.7059 -29.3667 10.5469 -17.7061 -61.3013 0.0000 0.0000 0.0000 4.1268 20.2773 -61.3003 -7.6242 -15.8358 51.1975 -1.3675 1.8449 -21.5843 -2.5652 9.9554 -28.8325 -10.5495 -0.1168 6.2246 0.9570 -0.3483 4.2900 6.9638 -0.2827 1.1114 -3.1078 -0.9517 -6.1354 3.8983 -0.1462 23.7093 1.9075 0.6044 8.3563 -0.0000 0.0000 0.0000 -85.6530 -12.9478 37.5800 25.6796 -36.8906 -8.6946 -0.0000 -0.0000 18.1654 32.0776 -18.4512 -11.2199 -7.1250 0.0000 -0.0000 2.5434 8.5043 -2.1414 -0.0000 0.0000 0.0000 93.5364 -13.2508 -41.9643 -7.5081 12.7524 -0.8402 0.0000 0.0000 44.4462 -16.4984 -37.0015 10.1070 7.1250 -0.0000 -0.0000 23.6964 -66.7064 -12.6921
0.00 0.00 0.00 177.7160 -0.3834 -165.2230 0.0000 0.0000 0.0000 -24.6298 -10.7412 0.4778 0.8401 5.8465 16.3398 0.8661 -10.1393 -17.0185 9.5081 -17.1238 -57.8314 0.0000 0.0000 0.0000 8.7108 21.5337 -53.9298 -7.5721 -15.7953 51.0062 -2.4642 1.6560 -29.2767 -0.2500 3.2175 -8.8849 -7.5499 -1.3556 5.1959 2.0351 -2.3702 3.9547 6.4487 -1.4979 1.5867 -3.1127 -0.5741 -6.1775 3.5481 -0.0388 19.8509 1.7159 0.4286 7.0780 -0.0000 -0.0000 0.0000 -88.3770 -8.9316 33.2624 22.7175 -33.7784 -6.9806 -0.0000 -0.0000 18.5976 28.9345 -17.4146 -9.3944 -7.1250 0.0000 -0.0000 0.6438 10.2632 -0.5188 -0.0000 -0.0000 0.0000 95.3745 -12.6005 -48.9464 -6.6587 11.3561 -0.6628 0.0000 0.0000 50.8700 -14.3802 -36.1052 8.5914 7.1250 -0.0000 -0.0000 25.0105 -65.3037 -12.6315
0.00 0.00 0.00 177.6460 -0.4545 -163.0080 0.0000 0.0000 0.0000 -23.4410 -10.1546 -4.5819 2.3396 9.5402 27.5003 0.0189 -0.2614 -2.5177 8.8838 -16.7323 -55.6873 0.0000 0.0000 0.0000 11.2806 20.9644 -47.1745 -6.0676 -14.4935 45.2524 -2.9356 2.4243 -31.8466 -0.3923 4.0216 -11.1375 -6.0323 -1.2392 4.3914 2.2409 -2.0696 3.5950 5.7734 -1.2839 1.5533 -3.7540 -0.4373 -5.8073 3.3081 0.0584 17.5515 1.7136 0.3251 6.2729 -0.0000 -0.0000 0.0000 -89.5666 -6.2448 29.7338 16.9794 -26.8306 -4.0780 -0.0000 -0.0000 20.9371 28.2799 -18.4831 -9.6790 -7.1250 0.0000 -0.0000 0.0943 9.1945 -0.0781 -0.0000 -0.0000 0.0000 92.9128 -10.0155 -14.4388 -10.6984 17.8244 -1.6824 0.0000 0.0000 24.3192 -16.9586 -36.1585 10.1996 7.1250 -0.0000 -0.0000 22.1701 -66.0841 -11.5250
0.00 0.00 0.00 178.2430 0.9308 -163.3900 0.0000 0.0000 0.0000 -22.3899 -9.4542 -14.4856 6.3386 14.7486 46.3260 -0.0038 3.3614 2.1586 11.2438 -18.0523 -63.5707 0.0000 0.0000 0.0000 14.5931 21.6563 -38.9991 -4.7910 -13.1445 39.9118 -3.1189 3.4751 -32.6328 -0.3080 3.5681 -9.8647 -5.2937 -0.7017 4.4558 2.3840 -0.9252 3.3756 5.4812 -0.5058 1.1246 -3.7242 -0.3647 -5.9711 2.9678 0.1899 17.2962 1.6061 0.3560 6.2172 0.0000 -0.0000 0.0000 -90.0743 -2.2252 27.3529 14.5740 -23.5493 -3.0537 -0.0000 -0.0000 21.4839 26.1563 -17.7611 -8.5203 -7.1250 0.0000 -0.0000 -1.2096 10.3437 0.9730 0.0000 -0.0000 0.0000 89.4430 -5.6498 0.9743 -14.6549 23.6631 -3.0861 0.0000 0.0000 14.1977 -19.7783 -37.0036 12.2120 7.1250 -0.0000 -0.0000 19.8606 -67.6860 -11.0040
0.00 0.00 0.00 178.9920 1.0331 -165.6470 0.0000 0.0000 0.0000 -17.6135 -15.3574 -38.7099 10.7809 17.8262 62.0681 1.0448 3.0441 -20.6308 11.5757 -18.2055 -64.6375 0.0000 0.0000 0.0000 21.1475 17.2933 -22.2497 -2.3144 -9.4923 27.3478 -3.2549 4.9743 -33.0945 -0.1549 2.5364 -6.9905 -4.9384 0.4091 5.1214 1.8842 0.5108 3.0115 4.7002 0.2523 0.1853 -4.1227 -1.0285 -6.3712 3.6936 -0.8137 16.9652 1.8293 -0.1084 6.2207 -0.0000 -0.0000 0.0000 -88.5612 4.9093 19.2007 10.9391 -18.1948 -1.7568 -0.0000 -0.0000 24.0534 25.6381 -17.5667 -8.2421 -7.1250 0.0000 -0.0000 -1.5303 10.6364 1.2220 -0.0000 -0.0000 0.0000 87.4965 8.4855 13.1695 -21.4855 32.3907 -6.3080 0.0000 0.0000 4.1778 -22.7745 -36.6968 14.0840 7.1250 -0.0000 -0.0000 15.8213 -68.3148 -8.9406
0.00 0.00 0.00 176.2000 3.5623 -169.4540 0.0000 0.0000 0.0000 -28.2578 -13.3111 -9.7961 1.0206 6.4271 18.0287 3.3825 -6.3400 -33.5728 10.5210 -17.6926 -61.2158 0.0000 0.0000 0.0000 4.7548 19.6426 -59.1879 -6.3438 -14.7534 46.3463 -0.9719 0.8985 -18.3549 -2.3996 9.6530 -27.8601 -10.4559 -0.1806 7.5346 -0.1269 -0.5583 4.0352 5.7847 -0.2914 0.1385 -1.3823 -0.9882 -4.4542 5.0452 -0.8614 20.6552 1.8659 0.3908 7.0566 -0.0000 -0.0000 0.0000 -83.7477 -15.0644 42.6319 23.9792 -35.1423 -7.6946 -0.0000 -0.0000 16.9192 28.1160 -18.5042 -9.6244 -7.1250 0.0000 -0.0000 -0.0141 9.2002 0.0117 -0.0000 -0.0000 0.0000 95.7177 -14.9208 -75.3518 -5.8889 10.0767 -0.5196 0.0000 0.0000 75.2429 -14.0713 -35.8070 8.3427 7.1250 -0.0000 -0.0000 25.0104 -64.9541 -12.4302
0.00 0.00 0.00 177.5980 1.5493 -169.4560 0.0000 0.0000 0.0000 -8.9937 -20.1899 -56.6134 6.3799 14.7866 46.4879 1.2919 0.5371 -21.6912 11.9817 -18.3829 -65.9309 0.0000 0.0000 0.0000 21.6851 11.8728 -11.2730 -1.2412 -7.0644 19.9063 -3.5435 3.5864 -34.8610 -0.4978 4.5235 -12.5543 -4.2485 2.5607 7.0725 1.2974 3.5052 4.3651 3.4772 1.8073 0.2335 -3.6655 -0.5633 -8.0516 4.8609 -3.0849 24.8960 1.8834 -1.8746 9.2431 -0.0000 0.0000 0.0000 -87.5068 5.2043 7.6433 9.0631 -15.2609 -1.2167 -0.0000 -0.0000 28.5038 24.5397 -17.1096 -7.6502 -7.1250 0.0000 -0.0000 -2.2126 11.2954 1.7377 -0.0000 0.0000 0.0000 87.3838 25.3519 30.9222 -20.3051 31.0081 -5.6877 0.0000 0.0000 6.1525 -18.1069 -32.6245 9.9978 7.1250 -0.0000 -0.0000 17.3578 -63.1204 -7.7547
0.00 0.00 0.00 177.8570 3.8277 -165.4370 0.0000 0.0000 0.0000 -14.2427 -22.5927 -44.0571 5.0226 13.4092 40.9202 2.3790 -6.4322 -27.8944 9.8204 -17.3076 -58.8863 0.0000 0.0000 0.0000 18.3312 6.0693 -7.5703 -3.1574 -10.9456 32.0967 -0.0827 -2.0360 -6.5833 -1.6137 8.0102 -22.7451 -9.1102 3.1322 3.3181 -0.5405 4.3246 4.1344 4.4371 2.0632 1.8436 -6.3860 -0.2009 -7.8518 9.7448 -3.5591 25.1913 4.0138 -1.9232 9.4383 0.0000 -0.0000 0.0000 -88.2264 -1.8425 19.4826 10.6825 -17.8000 -1.6776 -0.0000 -0.0000 22.6099 26.3325 -17.5527 -8.4896 -7.1250 0.0000 -0.0000 -1.0736 10.5429 0.8592 0.0000 -0.0000 0.0000 92.2092 9.6360 -5.8772 -9.1820 15.4501 -1.2482 0.0000 0.0000 26.8330 -19.8824 -36.9987 12.2783 7.1250 -0.0000 -0.0000 19.7297 -67.7129 -10.9411
0.00 0.00 0.00 179.7190 7.6890 -166.9410 0.0000 0.0000 0.0000 -20.2541 -15.0749 -17.7649 0.8737 5.9593 16.6663 2.4443 -1.7723 -29.1252 10.1374 -17.4864 -59.9467 0.0000 0.0000 0.0000 12.2977 24.0621 -29.0868 -3.4514 -11.3923 33.6145 -1.8663 2.6205 -25.1463 -3.4614 11.4070 -33.6650 -8.0761 0.6571 3.3517 0.9710 0.9737 4.2860 5.5382 0.3425 2.4453 -6.6513 -0.9092 -2.5335 8.2863 -0.2605 24.3510 4.0000 0.7690 7.9082 -0.0000 0.0000 0.0000 -85.6463 -5.8864 32.3240 20.3585 -31.0719 -5.7152 -0.0000 -0.0000 16.4537 31.2919 -17.0364 -10.0973 -7.1250 0.0000 -0.0000 2.2278 10.2643 -1.7965 -0.0000 0.0000 0.0000 90.0691 -5.8059 -37.2089 -7.1524 12.1698 -0.7634 0.0000 0.0000 44.5036 -16.6102 -35.8136 9.9015 7.1250 -0.0000 -0.0000 22.1776 -65.6725 -11.3200
